<svg xmlns="http://www.w3.org/2000/svg" viewBox="0 0 431.22 215.62"><defs><style>.cls-1{fill:#fff;}</style></defs><g id="Layer_2" data-name="Layer 2"><g id="Layer_1-2" data-name="Layer 1"><path id="thumb" class="cls-1" d="M343.12,82.9q.75,44.37,1.51,88.73a74.45,74.45,0,0,0,40,.75c6.73-1.78,20-5.48,31.31-17.7,3.09-3.33,12.66-14,14.77-30.54,1.79-14.07-1.3-36.45-13.91-42-4-1.75-15.78.82-39.32,6-2.11.46-12.13,2.66-19.92.34-4-1.19-8.68-3.07-8.68-3.07C346.49,84.43,344.5,83.54,343.12,82.9Z"/><path class="cls-1" d="M165.24,47.45c-.38-11.39-1.32-28.08,12.66-35.5,7.86-4.17,18.5-4.38,31-4.62C221.6,7.08,233,6.86,241.3,11c14.1,7,13.38,23.84,13.24,36.47-.32,29.19,1.72,98.06,2.67,129.86.26,8.82.94,24.08-12.41,32.1-9,5.43-21.65,5.83-29.66,6.08-7.62.24-22.17.7-32.57-4.86-14-7.47-14.47-22.65-15-32.59C165.29,134.54,166.7,91,165.24,47.45Zm46.65,161c11.8.27,21,.55,28.24-5.72,9-7.72,8.86-20,8.81-25.18-.13-14.14-7.6-24-11.35-28.78-5.65-7.24-14.28-18.27-26.08-17.82-11.43.43-19,11.35-24.14,18.76A52.36,52.36,0,0,0,178,175.9c-.46,7.61-1.07,17.9,5.93,25.14C190.53,207.91,200.24,208.14,211.89,208.4Zm26-192.78H183.25v5.1h54.59Zm0-15.62H183.25V5.11h54.59Z"/><path class="cls-1" d="M.14,77.29C-.17,68-.92,54.4,10.33,48.35c6.32-3.4,14.88-3.57,24.93-3.76,10.23-.21,19.42-.39,26.08,3C72.68,53.28,72.11,67,72,77.29c-.26,23.79,1.38,79.92,2.14,105.84.22,7.29-.29,19.09-10,26.17-7.71,5.62-18.38,6-23.76,6.21-6,.22-17.51.65-26.31-5.22C9.85,207.46,3,202.49,2,183.73.17,148.27,1.31,112.76.14,77.29ZM37.56,209.37c9.94.24,17.66.49,23.79-5.06,7.55-6.82,7.46-17.63,7.42-22.25-.11-12.49-6.4-21.2-9.56-25.44-4.76-6.39-12-16.14-22-15.75-9.62.39-16,10-20.33,16.59A47.9,47.9,0,0,0,9,180.65c-.38,6.72-.9,15.82,5,22.22C19.58,208.94,27.75,209.14,37.56,209.37Zm23.64-156H11.67v5.11H61.2Zm0-15.62H11.67v5.11H61.2Z"/><path class="cls-1" d="M77,61.39c-.35-10.34-1.21-25.51,11.63-32.25,7.21-3.78,17-4,28.45-4.19,11.67-.23,22.16-.43,29.76,3.31,12.94,6.38,12.29,21.66,12.16,33.13-.3,26.51,1.58,89.07,2.45,118,.24,8,.18,21.18-11.4,29.16-9.41,6.48-22.7,6.89-27.51,7-5.56.17-19.26.6-29.63-5.94-5.29-3.32-12.67-8.88-13.77-29.59C77,140.49,78.31,100.92,77,61.39Zm42.79,150.06c10.34.25,18.36.5,24.73-5.2,7.86-7,7.76-18.17,7.72-22.92-.11-12.86-6.66-21.83-9.94-26.19-4.95-6.59-12.5-16.63-22.84-16.22-10,.39-16.64,10.33-21.14,17.07a49.07,49.07,0,0,0-8.24,23.89c-.39,6.92-.93,16.28,5.2,22.88C101.07,211,109.57,211.21,119.77,211.45Zm23.8-194.77H94v5.11h49.54Zm0,15.62H94v5.11h49.54Z"/><path class="cls-1" d="M260.38,65.63c-.33-10.08-1.15-24.85,11-31.41,6.82-3.69,16-3.88,26.88-4.09,11-.22,20.93-.42,28.11,3.23,12.22,6.21,11.61,21.1,11.48,32.27-.28,25.83,1.5,86.76,2.32,114.9.22,7.7.15,20.76-10.77,28.41-8,5.58-18.83,6.17-24.38,6.47-6.07.33-19.56,1.07-29.59-5.4-4.45-2.87-11.94-8-13-28.83C260.42,142.69,261.64,104.14,260.38,65.63Zm40.1,142.93c10.59.25,18.81.5,25.35-5.28,8-7.13,7.94-18.43,7.9-23.25-.12-13.05-6.82-22.15-10.18-26.57-5.08-6.69-12.81-16.87-23.41-16.46-10.25.4-17,10.48-21.66,17.32a49.44,49.44,0,0,0-8.43,24.23c-.41,7-1,16.53,5.32,23.22C281.32,208.11,290,208.31,300.48,208.56Zm23.13-170H274.08v5.1h49.53Zm0-15.62H274.08V28h49.53Z"/></g></g></svg>